<?xml version="1.0" encoding="UTF-8" standalone="no"?>
<!-- Created with Inkscape (http://www.inkscape.org/) -->

<svg
   xmlns:dc="http://purl.org/dc/elements/1.1/"
   xmlns:cc="http://creativecommons.org/ns#"
   xmlns:rdf="http://www.w3.org/1999/02/22-rdf-syntax-ns#"
   xmlns:svg="http://www.w3.org/2000/svg"
   xmlns="http://www.w3.org/2000/svg"
   xmlns:sodipodi="http://sodipodi.sourceforge.net/DTD/sodipodi-0.dtd"
   xmlns:inkscape="http://www.inkscape.org/namespaces/inkscape"
   width="210mm"
   height="297mm"
   viewBox="0 0 210 297"
   version="1.1"
   id="svg8"
   inkscape:version="0.92.4 (5da689c313, 2019-01-14)"
   sodipodi:docname="zomout.svg">
  <defs
     id="defs2" />
  <sodipodi:namedview
     id="base"
     pagecolor="#ffffff"
     bordercolor="#666666"
     borderopacity="1.0"
     inkscape:pageopacity="0.0"
     inkscape:pageshadow="2"
     inkscape:zoom="0.35"
     inkscape:cx="510.07605"
     inkscape:cy="560"
     inkscape:document-units="mm"
     inkscape:current-layer="layer1"
     showgrid="false"
     inkscape:window-width="1920"
     inkscape:window-height="1014"
     inkscape:window-x="-8"
     inkscape:window-y="-8"
     inkscape:window-maximized="1" />
  <metadata
     id="metadata5">
    <rdf:RDF>
      <cc:Work
         rdf:about="">
        <dc:format>image/svg+xml</dc:format>
        <dc:type
           rdf:resource="http://purl.org/dc/dcmitype/StillImage" />
        <dc:title></dc:title>
      </cc:Work>
    </rdf:RDF>
  </metadata>
  <g
     inkscape:label="Calque 1"
     inkscape:groupmode="layer"
     id="layer1">
    <path
       style="stroke-width:0.26458332"
       d="m 76.351043,40.452309 c -33.137053,2.4e-5 -59.999935,26.862908 -59.999955,59.999961 2.7e-5,33.13705 26.862907,59.99993 59.999955,59.99995 33.137047,-2e-5 59.999927,-26.8629 59.999957,-59.99995 -2e-5,-33.137053 -26.8629,-59.999938 -59.999957,-59.999961 z m -0.07545,14.892116 c 23.743366,-6.1e-5 42.991196,20.093862 42.991176,44.880985 2e-5,24.78712 -19.24781,44.88104 -42.991176,44.88098 -23.743364,5e-5 -42.99119,-20.09387 -42.991174,-44.88098 -1.7e-5,-24.787121 19.247809,-44.881043 42.991174,-44.880985 z"
       id="path12"
       inkscape:connector-curvature="0"
       sodipodi:nodetypes="cccccccccc" />
    <rect
       id="rect32"
       width="26.458332"
       height="77.10714"
       x="-36.418488"
       y="193.6405"
       style="stroke-width:0.26458332"
       transform="rotate(-45)" />
    <rect
       id="rect3737"
       width="73.327377"
       height="24.190477"
       x="39.309521"
       y="89.869041"
       style="stroke-width:0.26458332" />
  </g>
</svg>
